<svg width="106" height="106" viewBox="0 0 106 106" fill="none" xmlns="http://www.w3.org/2000/svg">
<path d="M105.334 45.2735C101.098 16.3435 74.2046 -3.67085 45.2745 0.565768C16.3445 4.80655 -3.67409 31.6955 0.5667 60.6297C4.80336 89.5598 31.6965 109.578 60.6266 105.337C89.5608 101.096 109.575 74.2077 105.334 45.2735ZM100.355 53.8428C100.346 54.2852 100.33 54.7277 100.309 55.1701V55.1911C100.238 56.6979 100.087 58.1964 99.8702 59.6698C99.8702 59.6781 99.8662 59.6823 99.8662 59.6865C97.6922 74.3873 88.5757 87.1764 75.5862 94.2134C75.5737 94.2184 75.5612 94.2264 75.5528 94.2304C75.5528 94.2474 75.4944 94.2764 75.4318 94.3054C75.4151 94.3144 75.3942 94.3224 75.3775 94.3304C75.365 94.3344 75.3483 94.3434 75.3316 94.3514C75.3274 94.3554 75.3191 94.3554 75.3149 94.3594C73.5869 95.2824 71.7962 96.0964 69.9471 96.8054C66.2907 98.2044 62.4047 99.1764 58.335 99.6484C57.8634 99.7024 57.3917 99.7524 56.9242 99.7944C56.8574 99.7984 56.7865 99.8024 56.7155 99.8114C56.2981 99.8444 55.8807 99.8734 55.4758 99.8984C55.0083 99.9234 54.5534 99.9444 54.1026 99.9574C53.5099 99.9744 52.9213 99.9784 52.3328 99.9694C52.1074 99.9694 51.882 99.9654 51.6608 99.9574C51.2976 99.9534 50.9428 99.9404 50.5881 99.9234C50.2166 99.9114 49.8451 99.8904 49.4778 99.8614C49.2983 99.8524 49.1146 99.8404 48.9352 99.8194C48.5845 99.7944 48.2339 99.7654 47.8833 99.7234C47.5452 99.6944 47.2071 99.6564 46.8732 99.6104C46.1678 99.5234 45.4958 99.4274 44.8613 99.3184C44.6025 99.2764 44.3521 99.2354 44.11 99.1894C43.9389 99.1604 43.7719 99.1264 43.6049 99.0934C43.2376 99.0224 42.8828 98.9514 42.5447 98.8764C42.4863 98.8634 42.432 98.8514 42.3736 98.8384C42.286 98.8174 42.1941 98.7964 42.1065 98.7764C41.9395 98.7384 41.7726 98.7004 41.6139 98.6634C41.6139 98.6634 41.6014 98.6634 41.5972 98.6634C41.3426 98.6044 41.0964 98.5424 40.8501 98.4794C35.595 97.1354 31.4878 95.1364 28.6829 93.5124C28.7997 93.5664 28.9375 93.6254 29.0919 93.6924C28.9417 93.6084 28.7956 93.5204 28.6453 93.4334C28.4533 93.3544 28.2613 93.2664 28.0693 93.1784C28.0818 93.1954 28.0985 93.2164 28.111 93.2324C26.4539 92.1764 25.1725 91.2874 24.2501 90.5156C24.2417 90.5114 24.2375 90.5073 24.2334 90.5031C23.937 90.2819 23.6448 90.0606 23.3568 89.8311C23.29 89.781 23.2233 89.7267 23.1565 89.6724C22.9269 89.493 22.7015 89.3093 22.4761 89.1173C22.4135 89.0714 22.3551 89.0213 22.2925 88.967C22.1005 88.8126 21.9126 88.654 21.7248 88.487C20.5561 87.4853 19.4333 86.4209 18.3689 85.3064C18.1978 85.1311 18.035 84.9558 17.868 84.7805C17.8137 84.7179 17.7553 84.6553 17.6969 84.5927C17.5132 84.3923 17.3296 84.1878 17.1501 83.9833C16.933 83.7454 16.7243 83.4991 16.5156 83.2528C16.0857 82.7478 15.6641 82.2302 15.2551 81.7043C15.134 81.5498 15.013 81.3954 14.9003 81.241C14.7709 81.0782 14.6457 80.9112 14.5288 80.7442C14.341 80.498 14.1615 80.2475 13.982 79.9929C13.8443 79.8009 13.7107 79.6089 13.5771 79.4127C13.2098 78.8785 12.855 78.3358 12.5128 77.789C12.3792 77.5762 12.2456 77.3591 12.1204 77.1463C12.0578 77.0503 12.0035 76.9584 11.9493 76.8624C11.8533 76.708 11.7656 76.5535 11.6738 76.3991C11.5569 76.1988 11.44 75.9942 11.3315 75.7897C11.2773 75.6979 11.2272 75.606 11.1771 75.5184C11.056 75.3013 10.9392 75.0843 10.8265 74.8631C10.4341 74.1326 10.0668 73.3896 9.72026 72.6342C9.62846 72.438 9.53666 72.2376 9.45316 72.0414C9.37806 71.8828 9.30706 71.7242 9.24026 71.5614C9.16096 71.3861 9.08586 71.2108 9.01906 71.0313C8.95646 70.8978 8.90216 70.7642 8.85216 70.6306C8.76026 70.4219 8.67676 70.2091 8.59746 69.9962C8.55996 69.9085 8.52656 69.8167 8.49736 69.729C8.39716 69.4786 8.30116 69.2282 8.21346 68.9777C7.99226 68.3683 7.78356 67.7506 7.58736 67.1286C7.57906 67.1119 7.57486 67.0952 7.57066 67.0785C7.47056 66.7655 7.37456 66.4524 7.28686 66.1352C7.19506 65.8389 7.11156 65.5383 7.03226 65.2336C7.02386 65.2128 7.01976 65.1877 7.01556 65.1668C6.99886 65.1126 6.98216 65.0583 6.97376 65.0041C6.91956 64.7995 6.86526 64.595 6.81516 64.3905C6.74006 64.1025 6.67326 63.8146 6.60646 63.5224C6.56056 63.3346 6.51886 63.1467 6.48126 62.9589C6.41446 62.6542 6.35186 62.3494 6.28926 62.0405C6.22246 61.6982 6.15986 61.356 6.10146 61.0095C6.09306 60.9594 6.08476 60.9094 6.07636 60.8593C6.00966 60.4711 5.94696 60.0788 5.89276 59.6865C5.83016 59.2732 5.78006 58.86 5.72996 58.4468C5.49616 56.4224 5.39186 54.4104 5.41686 52.4194C5.42526 51.9645 5.43776 51.5179 5.45446 51.0671C5.51706 49.5937 5.64646 48.1369 5.84266 46.6969C7.47886 34.7508 13.694 24.0362 22.8601 16.5856C25.1016 14.7615 27.5225 13.1337 30.0979 11.7312C31.5003 10.9674 32.9487 10.2703 34.4388 9.65255C34.6392 9.56495 34.8354 9.48565 35.0274 9.40635C35.1025 9.37295 35.1734 9.34375 35.2486 9.31445C35.6075 9.17255 35.9749 9.03065 36.3422 8.89705C39.8483 7.59895 43.5632 6.69325 47.445 6.24245C49.6197 5.98785 51.7777 5.88345 53.9064 5.92515C54.0817 5.92935 54.2528 5.93355 54.424 5.93775C54.8581 5.94605 55.2922 5.96695 55.7179 5.99195C55.9433 6.00455 56.1687 6.01705 56.3941 6.03375C56.4275 6.03375 56.4609 6.03785 56.4943 6.04205C56.6988 6.05455 56.9075 6.07125 57.112 6.09215C57.2832 6.10465 57.4585 6.12135 57.6296 6.13805C57.8425 6.15475 58.0512 6.17565 58.2599 6.20485C58.4936 6.22575 58.7274 6.25495 58.9611 6.28415C59.2408 6.31755 59.5163 6.35095 59.7918 6.39265C60.2217 6.45525 60.6516 6.52205 61.0815 6.59725C61.1984 6.61805 61.3194 6.63895 61.4363 6.65985C61.6325 6.69325 61.8245 6.72665 62.0165 6.76835C62.2127 6.80175 62.4089 6.83935 62.605 6.88105C62.8137 6.92275 63.0183 6.96875 63.227 7.01465C63.444 7.06055 63.6569 7.10645 63.8739 7.16075C64.091 7.21075 64.308 7.26505 64.5251 7.31515C64.738 7.36945 64.9467 7.42365 65.1554 7.47795C65.3933 7.54055 65.6312 7.60315 65.8649 7.66995C66.5203 7.85355 67.1672 8.04975 67.8142 8.25845C68.1022 8.35445 68.3944 8.45045 68.6824 8.55485C68.9161 8.63415 69.1499 8.71765 69.3836 8.80525C70.1516 9.08495 70.9113 9.38545 71.6626 9.70685C71.8797 9.79865 72.0967 9.89055 72.3138 9.98655C73.4783 10.504 74.622 11.0675 75.7365 11.6728C75.9285 11.7771 76.1163 11.8815 76.3083 11.99C76.9261 12.3364 77.5396 12.6954 78.1407 13.0711C79.4597 13.8892 80.7369 14.7699 81.9683 15.709C81.9724 15.7132 81.9766 15.7215 81.985 15.7215C82.2897 15.9553 82.586 16.189 82.8865 16.427C82.9909 16.5188 83.0994 16.6064 83.2038 16.6983C83.6212 17.0405 84.0302 17.387 84.4393 17.7418C84.6104 17.892 84.7815 18.0423 84.9485 18.2009C85.2866 18.5056 85.6247 18.8187 85.9544 19.1359C86.0713 19.2444 86.184 19.3529 86.2967 19.4698C86.4052 19.5742 86.5138 19.6785 86.6223 19.787C86.7851 19.9456 86.9479 20.1126 87.1148 20.2796C87.4446 20.6218 87.7743 20.9724 88.0957 21.3231C88.3086 21.5568 88.5215 21.7906 88.7302 22.0285C88.9722 22.2998 89.2102 22.5794 89.4439 22.8591C89.6902 23.1555 89.9364 23.4518 90.1744 23.7523C90.1869 23.7649 90.1994 23.7816 90.2119 23.7983C90.3664 23.9903 90.5208 24.1906 90.6752 24.3868C90.9966 24.8 91.3052 25.2174 91.6102 25.6432C91.8152 25.927 92.0192 26.215 92.2152 26.5072C92.2532 26.5573 92.2902 26.6115 92.3202 26.6616C92.5122 26.9371 92.6992 27.2168 92.8752 27.5006C93.3552 28.2269 93.8062 28.9699 94.2352 29.7295C94.3822 29.98 94.5282 30.2346 94.6612 30.4934C95.0372 31.1737 95.3962 31.8666 95.7302 32.5678C96.1432 33.4152 96.5312 34.2793 96.8902 35.1558C97.1492 35.7903 97.3912 36.4246 97.6082 37.0466C97.6922 37.2678 97.7672 37.4849 97.8382 37.7061C97.9552 38.0401 98.0592 38.3698 98.1592 38.6954C98.2432 38.9625 98.3222 39.2296 98.4012 39.4884C98.5142 39.8515 98.6182 40.2188 98.7102 40.5861C98.7232 40.6279 98.7312 40.6696 98.7432 40.7072C98.8022 40.8992 98.8522 41.0912 98.8942 41.2832C98.9522 41.5169 99.0112 41.7508 99.0652 41.9762C99.1112 42.1389 99.1482 42.3059 99.1822 42.4687C99.1862 42.4937 99.1902 42.5146 99.1982 42.5396C99.2782 42.8986 99.3532 43.2408 99.4202 43.5705C99.5282 44.0965 99.6202 44.5806 99.6952 45.0189C99.8872 46.0749 99.9912 46.8681 100.042 47.2812C100.05 47.3731 100.062 47.4692 100.062 47.4692C100.183 48.496 100.263 49.4268 100.313 50.2574C100.3 50.2616 100.292 50.2656 100.284 50.2698C100.35 51.4552 100.371 52.6323 100.35 53.801V53.847L100.355 53.8428Z" fill="white"/>
<path d="M34.4381 9.64844C33.0482 10.2536 31.4746 11.0676 29.8425 12.157C26.9082 14.1104 24.8087 16.2642 23.3979 17.9714C23.3937 17.9588 23.3853 17.9421 23.3812 17.9296C21.8201 19.9081 18.652 24.5246 17.2329 31.2113C15.8304 37.848 16.8238 43.3535 17.5835 46.292C17.6488 46.5488 17.7457 46.9367 17.8427 47.5186C17.2608 47.3247 16.485 47.0337 15.868 46.7887L9.3941 44.0339C8.5494 43.7049 6.8299 42.9605 6.5306 42.8636C6.3428 43.8078 5.9768 45.773 5.6875 48.379C5.7293 47.7571 5.7919 47.1936 5.8587 46.6885H5.842C7.4782 34.7467 13.6933 24.032 22.8594 16.5814C25.1009 14.7574 27.5218 13.1295 30.0971 11.727C31.4996 10.9632 32.948 10.2661 34.4381 9.64844Z" fill="white"/>
<path d="M5.61611 46.2188C5.43281 47.7236 5.33621 49.4927 5.44731 51.4518C5.64261 54.9715 6.43391 57.8733 7.18971 59.955C7.17681 59.9523 7.15821 59.951 7.14531 59.9483C8.05861 62.2971 10.4304 67.3688 15.4735 71.9833C20.4819 76.5581 25.7306 78.4943 28.6484 79.33C28.9029 79.404 29.2864 79.517 29.8371 79.7286C29.3748 80.1317 28.7305 80.6529 28.2064 81.0604L22.5487 85.2425C21.8368 85.8036 20.3232 86.9081 20.0878 87.1169C20.8064 87.7576 22.3143 89.0698 24.4136 90.6409C23.8988 90.2894 23.4449 89.9497 23.0435 89.6359L23.035 89.6502C13.573 82.1833 7.49091 71.3927 5.71871 59.7141C5.28351 56.8572 5.10841 53.9452 5.20591 51.0143C5.25891 49.4182 5.39281 47.8163 5.61611 46.2188Z" fill="white"/>
<path d="M7.13376 59.6896C6.31566 57.4439 5.71456 55.0189 5.41406 52.4143C5.42246 51.9593 5.43496 51.5127 5.45166 51.0619C5.51426 49.5885 5.64366 48.1317 5.83986 46.6917L5.85656 46.6875C5.78976 47.1926 5.72716 47.7561 5.68536 48.378C5.68536 48.3864 5.68536 48.3947 5.68536 48.4072C5.52676 50.6028 5.57266 53.4953 6.31146 56.7719C6.54526 57.8113 6.82486 58.7838 7.13796 59.6896H7.13376Z" fill="white"/>
<path d="M24.4297 90.7453C25.6546 91.6383 27.1525 92.5843 28.9176 93.4413C32.0867 94.9853 35.0065 95.7083 37.1927 96.0623C37.184 96.0713 37.1738 96.0873 37.1651 96.0973C39.6614 96.4433 45.2461 96.8423 51.7326 94.6863C58.1675 92.5403 62.4151 88.8992 64.5661 86.758C64.7547 86.5718 65.0403 86.292 65.4933 85.9141C65.6202 86.5142 65.7615 87.3307 65.8621 87.9869L66.7588 94.9653C66.9021 95.8603 67.1294 97.7203 67.197 98.0273C68.1067 97.7123 69.9872 97.0343 72.3818 95.9663C71.8241 96.2443 71.3063 96.4753 70.8368 96.6733L70.8452 96.6873C59.7151 101.314 47.3285 101.37 36.2658 97.2293C33.5587 96.2173 30.9302 94.9523 28.418 93.4393C27.0498 92.6153 25.7161 91.7183 24.4297 90.7453Z" fill="white"/>
<path d="M71.2227 96.3705C72.6158 95.7725 74.1936 94.9665 75.8312 93.8855C78.7757 91.9475 80.8863 89.8044 82.306 88.1045C82.3101 88.1171 82.3183 88.1338 82.3224 88.1463C83.8938 86.176 87.0857 81.576 88.5395 74.8967C89.9764 68.2674 89.0115 62.7568 88.2671 59.8144C88.2031 59.5573 88.1082 59.1688 88.0142 58.5865C88.5951 58.7834 89.3694 59.0784 89.9852 59.3266L96.4444 62.115C97.2874 62.4483 99.0034 63.2016 99.3024 63.3001C99.4944 62.3568 99.8714 60.3936 100.173 57.7891C100.128 58.4108 100.063 58.974 99.9934 59.4787H100.01C98.3124 71.4119 92.0414 82.0943 82.8372 89.4972C80.5863 91.3095 78.157 92.9245 75.5744 94.3145C74.168 95.0705 72.716 95.7605 71.2227 96.3705Z" fill="white"/>
<path d="M100.023 59.1468C100.198 57.6411 100.286 55.8716 100.165 53.9131C99.9519 50.3944 99.1459 47.4967 98.3799 45.4187C98.3929 45.4214 98.4109 45.4226 98.4239 45.4253C97.4989 43.0811 95.1019 38.0214 90.0352 33.4323C85.0038 28.8829 79.7454 26.9733 76.8234 26.1523C76.5686 26.0796 76.1845 25.9684 75.6328 25.7596C76.093 25.3542 76.7346 24.8299 77.2567 24.4197L82.8932 20.209C83.6023 19.6444 85.1103 18.5323 85.3446 18.3224C84.6228 17.6852 83.1083 16.3807 81.0011 14.8203C81.5177 15.1691 81.9733 15.5066 82.3763 15.8182L82.3846 15.8038C91.8839 23.2229 98.0209 33.9828 99.8519 45.6522C100.302 48.5069 100.491 51.418 100.409 54.3493C100.364 55.9457 100.238 57.5482 100.023 59.1468Z" fill="white"/>
<path d="M81.6376 15.5018C80.4181 14.6011 78.9262 13.6458 77.1664 12.7777C74.007 11.2143 71.0918 10.474 68.9078 10.1065C68.9165 10.0966 68.9267 10.081 68.9355 10.0712C66.4414 9.70932 60.8593 9.27582 54.3596 11.3924C47.9115 13.4984 43.6415 17.1129 41.4772 19.2408C41.2875 19.4258 41.0001 19.7039 40.5448 20.0789C40.4217 19.4781 40.2854 18.6607 40.1889 18.0039L39.3354 11.0202C39.1977 10.1243 38.9818 8.26302 38.916 7.95542C38.0045 8.26522 36.1198 8.93142 33.7188 9.98482C34.2782 9.70982 34.7974 9.48212 35.2681 9.28722L35.2597 9.27282C46.4182 4.71502 58.805 4.73592 69.8419 8.94492C72.5426 9.97312 75.1632 11.2549 77.666 12.7831C79.029 13.6153 80.3572 14.5206 81.6376 15.5018Z" fill="white"/>
</svg>
