<svg width="256" height="80" viewBox="0 0 256 80" fill="none" xmlns="http://www.w3.org/2000/svg">
<mask id="mask0_496_7" style="mask-type:luminance" maskUnits="userSpaceOnUse" x="0" y="0" width="256" height="80">
<path d="M255.648 0H0V80H255.648V0Z" fill="white"/>
</mask>
<g mask="url(#mask0_496_7)">
<path fill-rule="evenodd" clip-rule="evenodd" d="M226.446 41.5428C226.446 32.617 233.058 27.438 241.323 27.438C247.493 27.438 253.003 30.4134 255.648 37.7962C254.876 41.5428 250.248 45.73 248.265 46.3913C246.612 42.8652 244.739 40.7713 242.975 40.7713C240.772 40.7713 240.661 42.3142 240.661 44.2974C240.661 45.7023 241.064 47.7712 241.548 50.261C242.279 54.0214 243.196 58.7415 243.196 63.5814C243.196 72.3967 237.025 78.8983 227.548 78.8983C218.871 78.8983 214.076 73.2097 211.936 64.1219C206.268 74.2798 197.979 78.8983 191.626 78.8983C181.693 78.8983 179.356 71.557 179.591 64.1107C175.601 71.1639 167.918 78.8983 160.551 78.8983C153.03 78.8983 150.374 72.3522 150.983 64.7285C146.477 73.1219 138.326 78.8983 130.468 78.8983C121.942 78.8983 117.721 72.1245 119.087 63.7285C113.351 70.7792 102.672 78.8983 91.5703 78.8983C78.9118 78.8983 73.4019 72.0722 72.7489 63.5188C66.6392 73.3108 58.4041 79.2288 48.595 79.2288C34.4352 79.2288 29.3705 66.6371 28.6335 56.3372C23.3857 63.3649 17.4856 70.6559 10.248 78.7879C9.47659 79.5594 8.81543 80 8.04409 80C5.50966 80 0.33058 68.7605 0 64.573C2.17481 61.1985 15.8838 46.1363 26.921 34.0099C30.8007 29.7474 34.3503 25.8475 36.9525 22.9454C30.1932 24.9851 23.2239 29.0529 14.4353 35.372C12.8926 36.474 8.59506 26.4463 8.70526 18.7328C18.843 11.2397 34.27 6.50139 46.7219 6.50139C64.1324 6.50139 74.1598 16.1984 74.1598 29.6419C74.1598 40.8817 64.7935 53.2232 51.1295 53.6641C44.0246 53.8484 39.4711 49.8603 37.1423 44.9354C37.4205 52.5522 41.381 61.9284 52.0111 61.9284C63.5997 61.9284 69.1647 54.933 77.464 44.5002C78.0032 43.8222 78.5539 43.1302 79.1185 42.4243C86.171 33.719 94.3253 26.0055 106.226 26.0055C113.499 26.0055 118.458 30.5234 118.458 37.3555C118.458 45.6199 108.76 57.0798 95.2068 57.0798C92.8919 57.0798 90.7817 56.7749 89.0006 56.1721C88.9558 56.5195 88.9257 56.8615 88.9257 57.1902C88.9257 61.0469 90.3582 63.3609 96.6394 63.3609C105.896 63.3609 114.601 57.8513 125.179 44.9588C135.538 32.2865 143.361 26.7769 151.626 26.7769C157.204 26.7769 161.439 29.8005 163.304 34.8926C174.381 18.8955 183.777 7.5608 191.736 0C199.56 3.3058 205.179 9.80719 203.637 11.1295C197.796 16.4188 178.292 37.6861 170.579 50.3581C168.595 53.6641 166.722 57.3003 166.722 59.0634C166.722 60.7163 167.714 61.2673 168.816 61.2673C174.111 61.2673 184.721 48.7677 193.885 37.9721C197.308 33.9395 200.529 30.1448 203.196 27.3279C209.367 29.8623 215.648 35.2616 214.105 37.1351C205.951 46.832 199.78 54.7661 199.78 59.2838C199.78 60.4959 200.221 61.2673 201.874 61.2673C204.959 61.2673 207.824 58.5124 212.562 52.6722C213.554 51.4601 214.766 51.4601 215.538 53.3335C217.631 58.4023 220.717 61.1573 223.141 61.1573C226.006 61.1573 227.438 58.6227 227.438 54.7661C227.438 52.1302 227.117 49.0657 226.84 46.4271C226.631 44.4325 226.446 42.6811 226.446 41.5428ZM48.7054 40.1102C54.5456 40.1102 60.9368 36.9146 60.9368 30.4134C60.9368 26.4678 58.488 22.8304 51.944 21.7227C51.5987 22.2622 51.2559 22.7983 50.9151 23.3313C47.5899 28.5297 44.4538 33.4327 41.2889 38.2254C43.1852 39.2904 45.5835 40.1102 48.7054 40.1102ZM107.769 42.0938C107.769 40.3307 106.667 39.1186 104.904 39.1186C100.483 39.1186 93.8146 45.3227 90.6768 51.3139C91.835 51.7615 93.1947 52.0111 94.6558 52.0111C102.48 52.0111 107.769 46.0608 107.769 42.0938ZM136.75 58.0717C136.75 60.0553 137.851 61.3774 140.165 61.3774C147.328 61.3774 156.254 48.3749 156.254 43.0854C156.254 40.8817 155.042 39.5592 153.058 39.5592C146.557 39.5592 136.75 51.901 136.75 58.0717ZM228.759 18.2926C226.225 22.4799 222.368 27.2182 220.936 28.6507C214.324 25.8959 208.153 20.3862 209.035 18.8435C211.459 14.546 215.426 9.91787 216.858 8.48537C223.47 11.2402 229.641 16.86 228.759 18.2926Z" fill="white"/>
</g>
</svg>
